<svg xmlns="http://www.w3.org/2000/svg" fill="#404041" viewBox="0 0 93 60">
  <title>23andMe logo</title>
  <path fill-opacity=".8" d="M.52 44.19a4.8 4.8 0 108.63 4.23l1.91-3.9-4.1-13.46L.52 44.2zM27.33.5a4.8 4.8 0 00-6.44 2.19l-7.73 15.74 4.1 13.46L29.53 6.93a4.8 4.8 0 00-2.2-6.44" clip-rule="evenodd"/>
  <path fill-opacity=".8" d="M14.75 56.6a4.8 4.8 0 109.2-2.81l-6.68-21.9-6.2 12.63 3.68 12.08zM10.46 9.58a4.8 4.8 0 00-9.2 2.8l5.7 18.68 6.2-12.63-2.7-8.86z" clip-rule="evenodd"/>
  <path d="M6.96 31.06l4.1 13.46 6.2-12.63-4.1-13.46-6.2 12.63z" clip-rule="evenodd"/>
  <path d="M30.88 35.12h-7.36c-.02-.17-.02-.31-.02-.43 0-1.85.74-3.07 2.53-4.24l1.72-1.16c.25-.18.44-.4.6-.67.16-.27.25-.59.25-.9 0-.82-.56-1.37-1.35-1.37-.98 0-1.53.68-1.56 1.95H23.5c.04-1.4.36-2.21 1.18-2.88a3.9 3.9 0 012.57-.83c2.23 0 3.64 1.17 3.64 3.02 0 1.47-.75 2.48-2.78 3.8-1.55.99-1.74 1.19-1.9 1.9h4.66v1.8zm3.07-3.2c0 1.02.67 1.65 1.7 1.65.95 0 1.57-.54 1.57-1.36 0-1-.62-1.39-2.21-1.39h-.25v-1.77H35c1.53 0 2.13-.38 2.13-1.34 0-.78-.6-1.35-1.44-1.35-1.02 0-1.57.6-1.57 1.71v.02h-2.26c.07-1.34.37-2.04 1.19-2.69a4.16 4.16 0 012.68-.81c2.18 0 3.61 1.12 3.61 2.85 0 1.22-.7 2.11-1.93 2.42.44.1.6.16.83.3a2.3 2.3 0 011.24 2.16c0 1.85-1.47 3-3.78 3-2.52 0-3.97-1.3-3.97-3.65h2.25l-.02.26zm11.13-.32l-.73.12c-1.37.2-1.9.52-1.9 1.12 0 .55.48.93 1.18.93 1.12 0 1.7-.73 1.74-2.22l-.3.05zm-1.04-4.57c1.14 0 2.05.31 2.63.91.57.57.77 1.2.77 2.6-.02.12-.02.5-.03 1.14v.74c0 1.23.06 2.05.2 2.7h-1.83c-.08-.44-.08-.59-.08-.88v-.33c-.57.98-1.37 1.39-2.66 1.39-1.67 0-2.84-.98-2.84-2.38 0-.58.23-1.14.6-1.53.46-.47 1.03-.71 2.1-.93.83-.14 1.72-.27 2.47-.32 0-1.1-.39-1.58-1.3-1.58-.86 0-1.3.4-1.35 1.16h-2.23c.11-1.68 1.43-2.69 3.55-2.69zm6.91 1.2a2.72 2.72 0 012.3-1.15c1.14 0 2.11.6 2.45 1.53a5 5 0 01.23 2.05v4.46h-2.16v-4.6c0-1.28-.36-1.78-1.26-1.78-.99 0-1.44.73-1.44 2.31v4.07H48.9v-7.86h2.05v.97zm9.81 5.3c1 0 1.66-.93 1.66-2.35-.01-1.45-.62-2.31-1.62-2.31-1.01 0-1.65.91-1.65 2.33 0 1.36.67 2.32 1.61 2.32zm3.8 1.59H62.5v-1.05a2.53 2.53 0 01-2.29 1.23c-1.9 0-3.24-1.68-3.24-4.09 0-2.45 1.27-4.13 3.14-4.13 1.06 0 1.76.36 2.28 1.17v-3.97h2.16v10.84zm13.89 0h-2.16V26.4l-2.66 8.72h-2.36L68.6 26.4v8.72h-2.17V24.28h3.63l2.5 8.2 2.43-8.2h3.47v10.84zm7-4.84c-.04-.96-.69-1.6-1.65-1.6-.94 0-1.53.55-1.7 1.6h3.34zm-1.57 5.02c-2.44 0-4-1.62-4-4.15 0-2.44 1.58-4.07 3.94-4.07 2.37 0 3.87 1.63 3.87 4.26 0 .13-.02.23-.02.5h-5.56c.05 1.15.72 1.8 1.82 1.8.73 0 1.22-.31 1.43-.93h2.31c-.5 1.7-1.83 2.59-3.79 2.59zm6.73-7.06a.84.84 0 00-.3-.04h-.11v.56h.2c.09 0 .19-.02.27-.07.06-.05.1-.13.1-.23s-.05-.18-.16-.22zm-.92 1.55v-1.93h.94c.15.01.27.05.38.1.17.1.25.25.25.46 0 .16-.04.28-.13.35a.64.64 0 01-.34.13c.12.03.22.06.28.11.11.1.17.24.17.44v.17l.01.11.02.06h-.48a1.5 1.5 0 01-.03-.27.94.94 0 00-.03-.24.24.24 0 00-.14-.14.57.57 0 00-.18-.03H90.2v.68h-.5zm-.26-1.98a1.39 1.39 0 00-.41 1c0 .41.14.75.42 1.03.28.28.62.42 1.01.42.4 0 .74-.14 1.02-.42a1.4 1.4 0 00.42-1.02c0-.39-.14-.73-.42-1.01a1.36 1.36 0 00-1.02-.43 1.37 1.37 0 00-1.02.43zm2.24 2.25a1.69 1.69 0 01-1.22.5 1.68 1.68 0 01-1.23-.5 1.69 1.69 0 01-.5-1.24c0-.51.18-.93.54-1.27.32-.3.75-.48 1.2-.47.47 0 .88.17 1.22.5.34.35.51.76.51 1.24a1.67 1.67 0 01-.52 1.24z" clip-rule="evenodd"/>
</svg>