<svg xmlns="http://www.w3.org/2000/svg" viewBox="0 0 134 26">
  <title>Codepen logo</title>
  <path fill="none" stroke="#404041" stroke-linecap="round" stroke-linejoin="round" stroke-width="2.3" d="M79 6h-9v14h9m34-14h-9v14h9m-3-7h-6 6zm-34 0h-6 6zm45 7V6l11 14V6M21 16.7L32 24l11-7.3V9.3L32 2 21 9.3v7.4zm22 0L32 9.3l-11 7.4m0-7.4l11 7.3 11-7.3M32 2v7.3V2zm0 14.7V24v-7.3zM87 14h6a4 4 0 0 0 4-4 4 4 0 0 0-4-4h-6v14-6zM14 8c-1.3-1.3-3-2-5-2-4 0-7 3-7 7s3 7 7 7c2 0 3.7-.8 5-2m49-5c0 4-3 7-7 7h-5V6h5c4 0 7 3 7 7z"/>
</svg>