<svg xmlns="http://www.w3.org/2000/svg" viewBox="0 0 122 31">
  <title>Cordial logo</title>
  <path fill="#404041" d="M57.4 9v3.9c0 .2-.2.4-.5.4h-.7c-3.8 0-6.2 2.2-6.2 6.6v10c0 .2-.2.4-.4.4h-4.2a.4.4 0 0 1-.4-.4V9.2c0-.2.2-.4.4-.4h3.9c.2 0 .4.2.4.4v2.7c1.4-2.2 3.8-3.3 7.2-3.4.3 0 .5.2.5.5zM80.3.9v28.9c0 .2-.2.4-.4.4h-4a.4.4 0 0 1-.4-.4v-2.4a9 9 0 0 1-7.1 3c-6.2 0-10.8-4.3-10.8-11S62.2 8.5 68.4 8.5c2.8 0 5.2.9 6.9 2.9V.9c0-.2.2-.4.4-.4h4.2c.2 0 .4.1.4.4zm-4.9 18.6c0-4.1-2.8-6.7-6.4-6.7-3.6 0-6.4 2.6-6.4 6.7s2.8 6.7 6.4 6.7a6.4 6.4 0 0 0 6.4-6.7zm9.4-10.7H89c.2 0 .4.2.4.4v20.5c0 .2-.2.4-.4.4h-4.2a.4.4 0 0 1-.4-.4V9.2c0-.2.2-.4.4-.4zM116.9.9c0-.3.2-.4.4-.4h4.2c.2 0 .4.2.4.4v28.8c0 .2-.2.4-.4.4h-4.2a.4.4 0 0 1-.4-.4V22c0-.1.1-.3.3-.3 2.3-1.3 4.5-4.3 4.7-10.5-.1 3.5-2 9.7-10 9.8h-10.2c-3.4 0-4.3 1.2-4.3 2.8 0 1.8 1.5 3 4.1 3 2.4 0 4.6-1.1 5.4-3.3V23l.2-.2h4.7l.2.2v6.8c0 .2-.2.4-.4.4h-3.9a.4.4 0 0 1-.4-.4v-2.2c-1.2 1.9-3.5 2.9-6.7 2.9-4.9 0-8-2.7-8-6.4 0-3.6 2.4-6.4 8.9-6.4h5.5v-.3c0-2.9-1.7-4.6-5.3-4.6-2.2 0-4.5.6-6.1 1.8-.2.2-.5.1-.6-.1l-1.6-2.9c-.1-.2-.1-.4.1-.5 2.2-1.6 5.4-2.4 8.7-2.4 6.1 0 9.6 2.8 9.7 8.9 1.7-.2 4.7-.7 5-4.1V.9zM20.2 19.6c0-6.3 4.7-10.8 11.2-10.8 6.6 0 11.3 4.5 11.3 10.8 0 6.3-4.7 10.8-11.3 10.8-6.4 0-11.2-4.5-11.2-10.8zm17.5 0c0-4-2.7-6.6-6.3-6.6-3.6 0-6.3 2.6-6.3 6.6 0 4 2.7 6.6 6.3 6.6 3.7 0 6.3-2.6 6.3-6.6zm46.4-17c0-1.5 1.2-2.6 2.8-2.6 1.6 0 2.8 1.1 2.8 2.5 0 1.5-1.2 2.7-2.8 2.7a2.6 2.6 0 0 1-2.8-2.6zm-71.8 5c3.3 0 6 1 8 3v.5c-.9 1.1-1.6 2.3-2.1 3.7-.1.1-.3.1-.4 0a6.6 6.6 0 0 0-5.5-2.8c-2 0-3.8.7-5.1 2a7.2 7.2 0 0 0-2 5.3c0 2.2.7 4.1 2 5.4a7.5 7.5 0 0 0 5.1 1.9c2.1 0 3.8-.7 5.1-2.2.3-.3.8-.2.9.2.5 1.2 1.1 2.3 1.8 3.3.1.1.1.4-.1.5-2 1.7-4.6 2.6-7.6 2.6-3.5 0-6.7-1.2-8.9-3.3A11.2 11.2 0 0 1 0 19.3C0 16 1.2 13 3.4 10.9a13 13 0 0 1 8.9-3.3z"/>
</svg>