<svg xmlns="http://www.w3.org/2000/svg" viewBox="0 0 178 49">
  <title>Discord logo</title>
  <path fill="#404041" d="M37.9 0H5a5 5 0 0 0-5 5v33.2a5 5 0 0 0 5 5h27.8l-1.3-4.5 3.2 3 3 2.7L43 49V5a5 5 0 0 0-5.1-5zm-9.5 32l-1.6-2c3.2-.9 4.5-2.9 4.5-2.9-1 .7-2 1.1-2.9 1.5a17.5 17.5 0 0 1-15.3-.9l-.2-.1-.8-.5s1.2 2 4.3 2.9l-1.6 2c-5.5-.1-7.5-3.7-7.5-3.7 0-7.9 3.5-14.3 3.5-14.3 3.6-2.6 6.9-2.6 6.9-2.6l.2.3C13.5 13 11.5 15 11.5 15l1.5-.6c2.6-1.2 4.7-1.5 5.5-1.6h.4a20.6 20.6 0 0 1 12.4 2.2s-2-1.8-6.1-3l.3-.5s3.4 0 6.9 2.6c0 0 3.5 6.4 3.5 14.3 0 0-2 3.5-7.5 3.7zm37-21.4h-8v9.2l5.4 5v-9h2.8c1.9 0 2.8.9 2.8 2.3v6.8c0 1.5-.9 2.4-2.8 2.4h-8.3v5.2h8.1c4.4 0 8.5-2.1 8.5-7.2V18c0-5.2-4-7.4-8.4-7.4zm42.8 14.7v-7.5c0-2.8 4.8-3.4 6.3-.7l4.5-1.8a8 8 0 0 0-7.7-5c-4.3 0-8.7 2.5-8.7 7.5v7.5c0 5 4.4 7.5 8.6 7.5 2.8 0 6-1.3 7.9-4.9l-4.8-2.2c-1.2 3-6.1 2.3-6.1-.4zm-14.9-6.5c-1.7-.4-2.8-1-2.9-2 .1-2.6 4-2.7 6.3-.2l3.6-2.8a9 9 0 0 0-7.4-3.5c-4 0-7.9 2.2-7.9 6.5 0 4.2 3.2 6.5 6.7 7 1.8.2 3.8 1 3.7 2.2-.1 2.3-5 2.2-7.1-.4l-3.5 3.2c2 2.7 4.8 4 7.4 4 4 0 8.5-2.3 8.6-6.6.3-5.3-3.6-6.7-7.5-7.4zM77 32.5h5.5v-22h-5.5v22zm92.6-22h-8.1v9.3l5.4 5v-9h3c1.7 0 2.7.9 2.7 2.3v6.8c0 1.5-.9 2.4-2.8 2.4h-8.3v5.2h8.1c4.4 0 8.5-2.1 8.5-7.2V18c0-5.2-4.1-7.4-8.5-7.4zm-40-.2c-4.4 0-9 2.5-9 7.5v7.5c0 5 4.6 7.5 9.1 7.5s9-2.5 9-7.5v-7.5c0-5-4.5-7.5-9-7.5zm3.6 15c0 1.6-1.8 2.4-3.5 2.4-1.8 0-3.5-.8-3.5-2.4v-7.5c0-1.6 1.7-2.5 3.4-2.5 1.8 0 3.6.8 3.6 2.5v7.5zm25.3-7.5c-.2-5.1-3.7-7.2-8.1-7.2h-8.8v22h5.6v-7h1l5 7h7l-6-7.6c2.6-.8 4.3-3.1 4.3-7.2zm-8 3H147v-5h3.3c3.4 0 3.4 5 0 5zM26 20.6c-1.4 0-2.5 1.2-2.5 2.7 0 1.5 1.1 2.7 2.5 2.7s2.5-1.2 2.5-2.7c0-1.5-1.1-2.7-2.5-2.7zm-9 0c-1.4 0-2.5 1.2-2.5 2.7 0 1.5 1.2 2.7 2.5 2.7 1.4 0 2.5-1.2 2.5-2.7 0-1.5-1-2.7-2.5-2.7z"/>
</svg>