<svg xmlns="http://www.w3.org/2000/svg" fill="#404041" viewBox="0 0 138 16">
  <title>DoorDash logo</title>
  <path d="M3.28 3.3v9.42H5.7A4.65 4.65 0 0010.3 8a4.57 4.57 0 00-4.6-4.7H3.3zM5.7.35a7.66 7.66 0 110 15.32H.4A.38.38 0 010 15.3V.74A.38.38 0 01.38.36L5.7.35zM25.14 13.04a5.04 5.04 0 10.03-10.07 5.04 5.04 0 00-.03 10.07zm0-13.04c4.72 0 8.33 3.63 8.33 8s-3.6 8-8.33 8c-4.72 0-8.3-3.61-8.3-8 0-4.39 3.6-8 8.3-8zM44.95 13.04a5.04 5.04 0 10-.03-10.07 5.04 5.04 0 00.03 10.07zm0-13.04c4.7 0 8.31 3.61 8.31 8 0 4.39-3.62 8-8.31 8-4.7 0-8.34-3.61-8.34-8 0-4.39 3.61-8 8.34-8zM64.28 3.3h-3.4v4.05h3.4a1.99 1.99 0 002.08-1.97 2.01 2.01 0 00-2.08-2.08zM57.6.74a.38.38 0 01.38-.38h6.4a5.04 5.04 0 012.5 9.53l2.96 5.2a.38.38 0 01-.35.6H66.9a.38.38 0 01-.34-.2l-2.84-5.16h-2.85v4.95a.38.38 0 01-.38.38h-2.5a.38.38 0 01-.37-.38L57.6.74zM78.18 3.37v9.42h2.4a4.65 4.65 0 004.6-4.7 4.57 4.57 0 00-4.6-4.72h-2.4zm2.4-2.95c4.5 0 7.89 3.4 7.89 7.66 0 4.27-3.4 7.66-7.88 7.66h-5.3a.38.38 0 01-.38-.38V.82a.38.38 0 01.39-.38l5.29-.02zM98.48 4.16L96.62 9.2h3.72l-1.86-5.04zm-2.95 7.88L94.3 15.4a.38.38 0 01-.38.27h-2.65a.38.38 0 01-.38-.54L96.62.58A.38.38 0 0197 .33h2.96a.38.38 0 01.38.25l5.71 14.54a.39.39 0 01-.03.38.39.39 0 01-.35.16h-2.64a.38.38 0 01-.38-.27l-1.22-3.35h-5.9zM109.12 4.49c0-2.4 2.08-4.49 5.36-4.49a6.8 6.8 0 014.77 1.8.38.38 0 01.12.28.38.38 0 01-.12.28l-1.47 1.45a.4.4 0 01-.27.11.38.38 0 01-.27-.1c-.7-.64-1.6-1-2.54-1.01-1.32 0-2.29.76-2.29 1.64 0 2.85 7.77 1.2 7.77 6.68 0 2.77-2.1 4.87-5.8 4.87a7.77 7.77 0 01-5.55-2.22.37.37 0 01-.12-.28.38.38 0 01.12-.28l1.42-1.42a.38.38 0 01.43-.09 4.9 4.9 0 003.47 1.45c1.64 0 2.72-.87 2.72-1.97 0-2.85-7.76-1.2-7.76-6.68M134.25.73v5.75h-6.57V.73a.38.38 0 00-.38-.39h-2.49c-.1 0-.2.05-.27.12a.38.38 0 00-.11.27v14.53a.38.38 0 00.38.38h2.5a.38.38 0 00.37-.38V9.4h6.57v5.85a.38.38 0 00.38.38h2.5c.1 0 .19-.04.26-.11a.38.38 0 00.11-.27V.73a.38.38 0 00-.38-.39h-2.49a.38.38 0 00-.38.39z"/>
</svg>