<svg xmlns="http://www.w3.org/2000/svg" fill="#404041" viewBox="0 0 97 20">
  <path d="M18.01 5.71C17.27 2.36 15.16 0 11.18 0h-.25C6.58 0 3.23 2.24 1.5 5.71.5 7.45 0 9.57 0 11.81c0 4.34 2.36 7.07 5.47 7.82.62.12 1.24.25 1.86.25.74 0 1.37-.13 1.99-.25a7.2 7.2 0 003.1-1.87v1.87c0 .12.13.12.13.12h2.73l.12-.12 1.87-9.44a.27.27 0 00-.25-.25h-6.7c-.13 0-.13.12-.26.12l-.5 2.49v.12c0 .13.13.13.13.13h3.35c-.74 1.98-2.36 3.72-5.09 3.72S3.6 14.53 3.6 11.3c0-2.1.75-4.22 1.87-5.59a6.31 6.31 0 014.84-2.36c1.86 0 2.98.87 3.73 2.36.12.38.37.75.5 1.25 0 .12.12.12.12.12l3.23-.87.12-.12V5.7zM25.34.25A.27.27 0 0025.1 0H22c-.13 0-.13.12-.25.12L18 19.38v.12c0 .13.13.13.13.13h3.23l.12-.13L25.34.25zm9.2 15.15c-.75 1-1.74 1.5-3.11 1.5-1.62 0-2.73-1.37-2.73-3.48 0-1.5.37-2.61.99-3.6.74-1 1.74-1.5 3.1-1.5 1.62 0 2.74 1.37 2.74 3.48 0 1.62-.37 2.73-1 3.6zm.37-9.69c-.62-.12-1.12-.24-1.87-.24-.74 0-1.49.12-2.23.24a6.68 6.68 0 00-3.48 2c-1.62 1.6-2.36 3.6-2.36 6.33a5.75 5.75 0 004.22 5.71c.62 0 1.24.13 1.87.13.74 0 1.49-.13 2.23-.25a6.68 6.68 0 003.48-1.99c1.62-1.62 2.36-3.6 2.36-6.34a5.27 5.27 0 00-4.22-5.59zm15.77 2a4.67 4.67 0 00-2.73-2c-.5-.12-1-.24-1.49-.24-.62 0-1.24.12-1.74.24-1.99.5-3.1 2-3.1 4.1 0 1.87 1.24 2.98 2.85 3.73 1.62.75 2.36 1.24 2.36 2.11 0 1-.87 1.5-1.74 1.5-1.36 0-2.23-.75-2.6-2.24 0-.13-.13-.13-.25-.13h-.13l-2.6 1.12c-.13 0-.13.12-.13.12A5.35 5.35 0 0044.6 20c.74 0 1.36-.12 1.98-.25 2.12-.5 3.48-1.99 3.48-4.6 0-1.98-1.49-2.85-2.86-3.6-.99-.5-2.36-.87-2.36-1.86 0-.75.63-1.24 1.37-1.24.75 0 1.5.37 1.99 1l.12.12h.13l2.1-1.5c.13-.24.13-.24.13-.37zm8.7-2c-.5-.12-1-.24-1.5-.24-.61 0-1.23.12-1.73.24-1.99.5-3.1 2-3.1 4.1 0 1.87 1.24 2.98 2.85 3.73 1.62.75 2.36 1.24 2.36 2.11 0 1-.87 1.5-1.74 1.5-1.36 0-2.23-.88-2.6-2.24 0-.13-.13-.13-.13-.13h-.13l-2.73.87c-.12 0-.12.13-.12.13a5.35 5.35 0 003.6 3.72c.5.13 1 .25 1.61.25.75 0 1.37-.12 2-.25 2.1-.5 3.47-1.98 3.47-4.6 0-1.98-1.49-2.85-2.86-3.6-.99-.5-2.36-.87-2.36-1.86 0-.74.62-1.24 1.37-1.24.75 0 1.49.37 1.99 1l.12.12h.13L62.1 7.7l.13-.12v-.13a5.11 5.11 0 00-2.86-1.74zm8.94 0h-3.1c-.13 0-.13 0-.25.13l-2.61 13.54v.12c0 .13.12.13.12.13h3.23l.13-.13 2.6-13.66c.13-.13 0-.13-.12-.13zm4.85 5.35a4.05 4.05 0 013.72-2.61c1.74 0 2.61.87 2.61 2.6h-6.33zm5.96-5.35a7.33 7.33 0 00-1.74-.24 8.22 8.22 0 00-8.32 8.32c0 3.23 1.74 5.34 4.22 5.96a7.33 7.33 0 003.85 0c1.99-.5 3.36-1.61 4.72-3.48v-.12c0-.13 0-.13-.12-.13l-2.36-1.24h-.13c-.12 0-.12 0-.12.13-1 1.49-2.11 2.23-3.73 2.23-1.86 0-2.85-1.24-2.85-2.73v-.5H82.6l.12-.12c.13-.37.38-1.37.38-2.61-.13-2.73-1.5-4.84-3.98-5.47zm15.03 3.11h.25s.12 0 .12-.12l1-2.74v-.12c0-.13 0-.13-.13-.13-.12 0-.12 0-.24-.12a4.06 4.06 0 00-1.5-.25c-.5 0-.99.13-1.49.25-.99.37-1.98 1-2.85 2.11l.37-1.86a.27.27 0 00-.25-.25h-3.1c-.13 0-.13.12-.25.12l-2.61 13.54v.13c0 .12.12.12.12.12h3.23l.13-.12.99-4.85c.87-4.34 3.23-6.2 4.97-6.2.5.24.87.24 1.24.49zM67.46.25c-1.12 0-2 .87-2 1.99 0 1.11.88 1.98 2 1.98 1.11 0 1.98-.87 1.98-1.98 0-1.12-.87-2-1.99-2zM94.28 15.9c-1.12 0-2 .87-2 1.99 0 .74.38 1.36 1 1.74.25.12.62.25 1 .25.37 0 .74-.13.99-.25.62-.38 1-1 1-1.74 0-1.12-.88-1.99-2-1.99z"/>
</svg>