<svg xmlns="http://www.w3.org/2000/svg" viewBox="0 0 210 31">
  <title>MaxMind logo</title>
  <path fill="#404041" d="M117.2 31V17.5l-5.8 8.9h-.1l-5.8-8.8V31H101V10.3h4.9l5.5 8.8 5.5-8.8h4.9V31h-4.6zm20 0V10.3h4.6V31h-4.6zm34.6 0l-10.1-13.2V31h-4.5V10.3h4.2l9.7 12.8V10.3h4.5V31h-3.8zm27.1 0h-8.1V10.3h8.1c6.6 0 11.1 4.5 11.1 10.3v.1c0 5.7-4.5 10.3-11.1 10.3zm6.4-10.4a6 6 0 0 0-6.2-6.2h-3.6v12.5h3.6c3.6 0 6.2-2.5 6.2-6.3zm-68.1-16V0h4.6v4.6h-4.6z"/>
  <path fill="#404041" d="M16.2 31V17.5l-5.8 8.9h-.1l-5.8-8.8V31H0V10.3h4.9l5.5 8.8 5.5-8.8h4.9V31h-4.6zm35.3 0l-1.9-4.6h-8.8l-2 4.6h-4.7L43 10.1h4.2l9 20.9h-4.7zm-6.4-15.4l-2.7 6.7h5.5l-2.8-6.7zm37 15.4l-4.7-7.1-4.7 7.1h-5.2l7.2-10.5-7-10.2H73l4.4 6.7 4.4-6.7H87l-7 10.1L87.4 31h-5.3z"/>
</svg>