<svg xmlns="http://www.w3.org/2000/svg" viewBox="0 0 164 31">
  <title>Postmates logo</title>
  <path fill="#404041" d="M42.3 12.1a5.6 5.6 0 0 0-9-.6l-2-1.5c.6-.2 1.6-.7 1.7-1l-1.3-.3 3.7-3.4v-.1l-.9-1.8h-.1l-3.9 3.5c-1.2 0-3.2.2-3.8-.2-1-.6-1-1.5-1.4-1.8-.4-.3-.8-.3-.9-.6.2 0 1.3-.4 1.5-1.1.2-.7-.3-1.7-.3-1.8l1-1-1.6.1c-.1 0-.7-.8-2-.3-1.6.6-1.3 2-1.3 2 .2 1.3.7 1.5 1.5 2A38.8 38.8 0 0 1 13 10.5a11.3 11.3 0 0 0 6.5-.4c0 .5-.8 3.4.3 4.3l-1.4 1a.4.4 0 0 0 .3.8l.7-.1c.5 0 1-.3 1.3-.6l.3-.3 2.1 1.6-.2 2.3a5.6 5.6 0 1 0 4.6 3l.5-.4a1.3 1.3 0 0 0 2.2-1.4l2.3-.7c.2 0 .3-.2.3-.4-.1-.2-.2-.4-.4-.4h-2l-.6-1.3 1.2-6.8 1.8 1.4a5.6 5.6 0 1 0 9.4 0zM27 8.1h2.6l.3.6c-.6 0-1.2 0-1.8.2-.5 0-1-.6-1.2-.7V8zm-4 4a20 20 0 0 0 1.7-3.3 7 7 0 0 0 2.8 1.6l2.3-.7.5.4-2.4 2.2c-.2-.2-.6-.4-1-.4a17.4 17.4 0 0 0-4 .1zm6 7.2l-.5.1-1.6-1.2.8-1.8 1.4 2.2-.1.7zm-3.5-1.9l-1.2-.8 2.2-2-1 2.8zm0-2.9l-1.8 1.6-1.8-1.3c1.2 0 2.4 0 3.6-.3zm-1.5 2.8l1.2.9-.1.4c-.1.2 0 .5.3.6l2.4 1v.8l-.5.4c-.9-1.2-2.1-2-3.5-2.2l.2-1.9zm-.3 3c1 .2 2 .8 2.6 1.7l-3 2 .4-3.7zm1.4 8.1a4.4 4.4 0 1 1-2.2-8.2l-.6 4.5a.4.4 0 0 0 .6.3l3.8-2.4c1 2 .4 4.6-1.6 5.8zM28.3 14v-1l2-1.8-1 5.2-1-2.4zm11.7 5a4.4 4.4 0 0 1-6.1-6.1l3.5 2.6c.1.1.3.1.4 0h.1v-.6l-3.6-2.6 1-.8a4.4 4.4 0 1 1 4.7 7.4zM28.7 6l3.2-3 .2-.2 1.3.1V3l-3.2 3s-.1.1-.2 0h-1.3zM11.7 25l-.7 2.3 1.9 1.7-2.5-.2-.9 2.3-.7-2.4-2.4-.3 2-1.3-.6-2.4 2 1.5 2-1.2zm2.5-8.8l-.8 2.3 1.8 1.7-2.4-.2-.9 2.3-.7-2.4-2.4-.2 2-1.4-.6-2.4 1.9 1.6 2-1.3zm-9.6 4.7l1.9 1.7-2.5-.2-.9 2.3-.7-2.4-2.4-.3 2-1.3-.6-2.4 2 1.6 2-1.3-.8 2.3zM56 23.6V6.4h7.2c3 0 5 2.3 5 5.2 0 3-2 5.3-5 5.3h-4.4v6.7H56zm2.8-14.9v5.9H63c1.3 0 2.4-1.4 2.4-3 0-1.5-1-2.9-2.4-2.9h-4.3zM82 20l2.5-.5c.2 1 .8 2.1 2.8 2.1.4 0 2.6-.1 2.6-1.7 0-3-7.6 0-7.6-5.2 0-2.1 2.1-3.7 4.8-3.7 2.6 0 4.8 1.1 5.2 3.9l-2.6.5c-.2-1.6-1.1-2.1-2.6-2.1-1.3 0-2.1.6-2.1 1.4 0 1 .9 1.3 2.3 1.4 2.8.3 5.2 1 5.2 3.8 0 2.6-2.3 4-5.2 4-3.2 0-5-1.7-5.3-4zm11.2-6.8v-2h2.1V7.7H98v3.5h2.6v2H98v7c0 1 .3 1.3 1.2 1.3h1.2v2.1l-2 .1c-2.2 0-3-1.2-3-3.6v-6.9h-2.1zm16.5 3.5c0-1.9-.4-3.4-2.4-3.4-1.9 0-2.4 1.5-2.4 3.4v7h-2.6V11.1h2.4l.2 1.4c.4-.7 1.8-1.6 3.3-1.6 2 0 3 1.1 3.4 1.9.7-1.1 2.3-1.9 3.7-1.9 3.4 0 4.4 2 4.4 5.7v7h-2.6v-7c0-1.8-.5-3.5-2.4-3.5-2 0-2.4 1.6-2.4 3.5v7h-2.6v-7zm14.8-1.2L122 15c.3-2.7 2.5-4 5-4 3.6 0 5.4 1.7 5.4 5v4.4c0 .7.1 1.1.6 1.1h.7v2c-.5.2-1 .3-1.6.3-1 0-2-.7-2.1-1.8a5.1 5.1 0 0 1-3.9 1.8c-2.9 0-4.6-1.6-4.6-3.9 0-2 1.8-3.7 5-3.7h3.3v-.7c0-1-.4-2.3-2.7-2.3-1.5 0-2.4.8-2.5 2.3zm5.2 3.3v-.6h-3c-2.1 0-2.6 1-2.6 1.7 0 .8.6 1.7 2.2 1.7 2.1 0 3.3-1.5 3.3-2.8zm-55.1 5a6.4 6.4 0 1 1 0-12.8 6.4 6.4 0 0 1 0 12.9zm0-10.3a4 4 0 1 0 0 8 4 4 0 0 0 0-8zm75.4 5.8l2.4.7c-.6 1.8-2.3 3.8-5.6 3.8-3.4 0-5.8-2.6-5.8-6.4 0-3.8 2.2-6.4 5.7-6.4 3.4 0 5.5 2.3 5.5 6v1.2h-8.5c0 1.8 1.3 3.4 3 3.4 1.4 0 2.6-.6 3.3-2.3zm-.6-3c0-2-1-3-2.7-3-1.8 0-2.8 1.4-2.9 3h5.6zm4 3.7l2.5-.5c.2 1 .8 2.1 2.8 2.1.4 0 2.6-.1 2.6-1.7 0-3-7.6 0-7.6-5.2 0-2.1 2.1-3.7 4.8-3.7 2.6 0 4.8 1.1 5.2 3.9l-2.6.5c-.2-1.6-1.1-2.1-2.6-2.1-1.3 0-2.1.6-2.1 1.4 0 1 .9 1.3 2.4 1.4 2.7.3 5.1 1 5.1 3.8 0 2.6-2.3 4-5.2 4-3.2 0-5-1.7-5.3-4zm-20.2-6.8v-2h2.1V7.7h2.6v3.5h2.6v2H138v7c0 1 .3 1.3 1.2 1.3h1.2v2.1l-2 .1c-2.2 0-3-1.2-3-3.6v-6.9h-2.1z"/>
</svg>