<svg xmlns="http://www.w3.org/2000/svg" viewBox="0 0 114 40">
  <title>Timely logo</title>
  <path fill="#404041" d="M15.9 6h4.5v4.1h-4.5V6zm.1 7h4.3v18.6H16V13zm22.1 2.9a6 6 0 0 0-5.6-3.3c-2.8 0-4.4 1.5-5.6 3.2V13h-4.3v18.6h4.3V21.1c0-2.9 1.6-4.6 4-4.6 2.3 0 3.7 1.6 3.7 4.5v10.6h4.3V21.1c0-3 1.6-4.6 3.9-4.6 2.4 0 3.8 1.6 3.8 4.5v10.6h4.3V19.7c0-4.5-2.5-7.1-6.5-7.1a7.4 7.4 0 0 0-6.3 3.3zM66.3 21h-9.5c.4-2.9 2.2-4.9 4.8-4.9 2.8 0 4.4 2.1 4.7 4.9zm4.2 1.6c0-5.4-3-10-8.9-10-5.3 0-9 4.4-9 9.7 0 5.8 4.1 9.7 9.5 9.7 3.4 0 5.8-1.3 7.6-3.5l-2.5-2.2a6.6 6.6 0 0 1-5 2.2c-2.8 0-4.9-1.6-5.4-4.7h13.7v-1.2zm2.1-16.8h4.3v25.8h-4.3V5.8zm16.8 17L88 26.7 82.7 13h-4.5L86 32l-2.9 8h4l5-13.5L97.3 13h-4.5l-3.4 9.8zM9.1 13h6.3l-2.5 4.2H9.1v14.4H4.8V17.2H0V13h4.8V5.8h4.3V13zm102.7 7.9h-3.5l-1.3-3.5-.9 2.3 4.2 11.3h-4l-2.2-5.9-2.2 5.9h-4l4.2-11.3-.1-.1h.1l1.2-3.1h-5l1.2-3.5h9.4l2.9 7.9zm-3-13.8h-2.6V5.8h1.8l1-2.2h1.2l-1.4 3.5zm5.2-1.3a5.8 5.8 0 0 1-11.5 0c0-3.2 2.6-5.8 5.8-5.8 3.1 0 5.7 2.6 5.7 5.8zm-9.5 0c0 2.1 1.7 3.8 3.8 3.8 2 0 3.7-1.7 3.7-3.8 0-2.1-1.7-3.8-3.7-3.8a3.8 3.8 0 0 0-3.8 3.8z"/>
</svg>