<svg xmlns="http://www.w3.org/2000/svg" fill="#404041" viewBox="0 0 163 22">
  <title>Broadcom logo</title>
  <path d="M160.43 3.05c-.88 0-1.63.74-1.63 1.62 0 .88.75 1.63 1.63 1.63.88 0 1.62-.75 1.62-1.63a1.6 1.6 0 00-1.62-1.62zm0 2.9c-.75 0-1.29-.6-1.29-1.28s.61-1.29 1.29-1.29a1.28 1.28 0 110 2.58z"/>
  <path d="M161.1 4.4c0-.27-.2-.47-.54-.47h-.74v1.55h.34v-.54h.27l.34.54h.4l-.33-.6c.13-.07.27-.2.27-.48zm-.54.2h-.33v-.4h.33c.14 0 .2.06.2.2s-.06.2-.2.2zM131.53 3.05a7.79 7.79 0 100 15.57 7.79 7.79 0 000-15.57zm0 12.59a4.71 4.71 0 01-4.74-4.74c0-2.64 2.1-4.74 4.73-4.74 2.64 0 4.74 2.1 4.74 4.74a4.8 4.8 0 01-4.73 4.74zM37.16 10.63c1.42-.27 2.57-1.56 2.57-3.39 0-1.96-1.42-3.79-4.26-3.79h-7.78v14.83h8.05c2.84 0 4.33-1.76 4.33-4-.06-1.9-1.28-3.45-2.9-3.65zm-6.3-4.47h3.93c1.09 0 1.76.68 1.76 1.62 0 .95-.67 1.63-1.76 1.63h-3.92V6.16zm4.07 9.34h-4.06v-3.45h4.06c1.22 0 1.9.81 1.9 1.76 0 1.08-.75 1.7-1.9 1.7zM54.7 8.19c0-2.77-1.9-4.74-4.95-4.74h-6.97v14.83h3.18V13h2.3l2.91 5.28h3.6l-3.32-5.69c1.62-.34 3.24-1.76 3.24-4.4zm-5.49 2.03H45.9v-4h3.32c1.29 0 2.24.75 2.24 2.04 0 1.28-.95 1.96-2.24 1.96zM79 3.45l-5.76 14.83h3.59l.95-2.5h6.36l.88 2.5h3.59L82.92 3.45H79zm-.34 9.48l2.3-6.36 2.3 6.36h-4.6zM97.2 3.45h-5.82v14.83h5.83c4.67 0 7.85-2.91 7.85-7.38 0-4.54-3.25-7.45-7.86-7.45zm0 12.05h-2.7V6.23h2.7c3.05 0 4.68 2.03 4.68 4.67-.07 2.44-1.76 4.6-4.67 4.6zM152.78 3.45l-3.86 6.3-3.86-6.3h-3.45v14.83h3.18V8.6l3.39 5.14c.4.61 1.28.61 1.62 0l3.39-5.14v9.68h3.18V3.45h-3.59zM64.65 3.05a7.84 7.84 0 00-7.79 7.85 7.79 7.79 0 0015.57 0 7.76 7.76 0 00-7.78-7.85zm0 12.59a4.7 4.7 0 01-4.74-4.74 4.7 4.7 0 014.74-4.74 4.7 4.7 0 014.73 4.74c0 2.57-2.1 4.74-4.73 4.74zM119.2 13.2a4.67 4.67 0 01-4.12 2.44 4.71 4.71 0 01-4.74-4.74c0-2.64 2.1-4.74 4.74-4.74 1.76 0 3.31.95 4.13 2.44l2.23-2.24a7.82 7.82 0 00-14.15 4.54 7.79 7.79 0 0014.15 4.47l-2.23-2.17z"/>
  <path d="M10.97 0A11 11 0 000 10.97c0 1.15.2 2.3.54 3.31.27-.13.54-.27.81-.34a3.95 3.95 0 013.6.34s.4.27.53.34c.54.34 1.02.68 1.56.68.47 0 .95-.14 1.08-1.02.27-1.42 1.02-4.87 1.36-6.56.2-1.02.27-1.56.4-1.9.2-.68.54-1.01 1.02-1.08h.27c.47.07.81.4 1.01 1.08.14.34.2.88.41 1.9.34 1.69 1.08 5.14 1.35 6.56.2.88.68 1.02 1.09 1.02.47 0 1.01-.34 1.55-.68.14-.07.55-.34.55-.34a3.76 3.76 0 013.58-.34c.27.14.55.2.82.34.33-1.01.54-2.16.54-3.31C22 4.94 17.06 0 10.97 0z"/>
  <path d="M18.68 15.57c-.4.13-.8.4-1.15.6-.67.41-1.49.96-2.5.96-1.5 0-2.5-.88-2.85-2.44C11.91 13.47 10.97 9 10.97 9a148 148 0 01-1.22 5.69c-.34 1.56-1.36 2.44-2.85 2.44-1.01 0-1.76-.48-2.5-.95-.34-.2-.74-.48-1.15-.61-.4-.14-.88-.14-1.29 0-.27.07-.6.2-.88.34A10.9 10.9 0 0010.83 22c4.33 0 8.12-2.5 9.95-6.1a3.4 3.4 0 00-.88-.33c-.4-.14-.81-.14-1.22 0z"/>
</svg>