<svg xmlns="http://www.w3.org/2000/svg" fill="#404041" viewBox="0 0 100 23">
  <path d="M13.45 0v22.38l5.72-4.56V3.11L13.45 0zM10.8 17.5l-4.6 2V1.95l4.6 1.36v14.18zM0 16.97l3.52-.94V4.84l-3.5-.57L0 16.97z"/>
  <path d="M38 3.1l-4.86 8-4.94-8h-2.6v14.72h2.45V7.08l5.02 8.07 5.05-8.13v10.8h2.43V3.11h-2.54zm10.78 14.72l-.02-1.33a3.79 3.79 0 01-3.2 1.58c-1.87 0-3.18-1.21-3.18-2.96 0-1.9 1.21-3.04 3.64-3.42l2.66-.42v-.16c0-1.1-.81-1.7-2.23-1.7-1.34 0-2.49.57-3.49 1.46V8.5a5.72 5.72 0 013.66-1.22c2.88 0 4.44 1.47 4.44 3.93v6.61h-2.28zm-2.64-1.73c1.51 0 2.56-.98 2.56-2.39v-.57l-2.3.39c-1.11.18-1.68.66-1.68 1.41.02.72.6 1.16 1.42 1.16zm13-6.23c-.1-.07-.32-.08-.63-.08-1.78 0-2.88 1.38-2.88 3.5v4.54h-2.4V7.52h2.39v1.76a3.31 3.31 0 013.05-1.98c.27 0 .42.02.47.07v2.49zm1.56-6.75v14.71h2.41v-4.09l.54-.48 3.67 4.57h2.98L65.5 12l4.46-4.48H67L63.1 11.4V3.1h-2.4z"/>
  <path d="M79.46 16.98a7.53 7.53 0 01-3.98 1.1c-3.4 0-5.55-2.32-5.55-5.43 0-3.09 2.15-5.37 5.17-5.37 3.01 0 4.94 2.26 4.94 5.32 0 .34 0 .53-.07.85h-7.63c.18 1.43 1.36 2.56 3.3 2.56 1.29 0 2.55-.46 3.8-1.38v2.35h.02zm-1.8-5.36a2.52 2.52 0 00-2.6-2.38 2.77 2.77 0 00-2.72 2.38h5.32zm8.51 4.22c.4 0 .82-.08 1.14-.31v2.16c-.4.23-1.02.38-1.85.38-2.08 0-3.3-1.26-3.3-3.42V9.58h-1.82l4.24-5.4v3.34h2.73v2.06h-2.73v4.62c0 1.16.5 1.64 1.6 1.64zm12.84-3.17c0 3.03-2.33 5.4-5.49 5.4a5.34 5.34 0 01-5.48-5.4c0-3.03 2.32-5.4 5.48-5.4a5.35 5.35 0 015.49 5.4zm-8.56 0a3.1 3.1 0 003.06 3.17 3.09 3.09 0 003.06-3.17 3.1 3.1 0 00-3.06-3.18 3.1 3.1 0 00-3.06 3.18z"/>
</svg>