<svg xmlns="http://www.w3.org/2000/svg" fill="#404041" viewBox="0 0 169 22">
  <path d="M19.48 3.95l-.12.42 1.83 3.36.33.14.48-.16V22h-7.05a12.09 12.09 0 002.28-13.02c.71-.56 1.48-1.05 2.29-1.45l.5-.06.03-.12-.98-1.83h-.15l-.26.38c-.85.56-1.37.68-2.5 1.11A12.13 12.13 0 000 3.2V0h22v2.58l-2.52 1.37zM16.8 13.8A11.01 11.01 0 0113.1 22H0V4.7a10.85 10.85 0 0116.81 9.09zm-4-2.92c0-2.38-1.75-3.52-5.2-3.52h-5.5v1.07l1.23.28v9.55l-1.23.27v1.1h6.06v-1.1l-2.1-.28v-3.53h1.5c3.36 0 5.25-1.35 5.25-3.84zm-2.85.08c0 1.51-.82 2.44-2.13 2.44H6.07V8.64h1.85c1.28 0 2.04.84 2.04 2.31zM34.18 17.62l2.69.32v1.23h-7.72v-1.23l1.55-.4V4.64l-1.55-.4V3.04h6.93c4.5 0 6.72 1.55 6.72 4.74 0 3.27-2.45 5.1-6.78 5.1h-1.85l.01 4.73zm0-6.2h2c1.9 0 3.09-1.35 3.09-3.54 0-2.1-1.1-3.36-2.96-3.36h-2.13v6.9zM58.88 17.94v1.23h-4.35l-4.7-6.04h-.73v4.4l1.55.4v1.23h-6.57v-1.23l1.55-.4V6.85l-1.47-.4V5.26h7.23c3.08 0 5.15 1.49 5.15 3.72 0 2.46-1.69 3.58-3.23 3.97l3.96 4.63 1.61.36zm-9.77-6.28h1.3c1.7 0 2.6-.94 2.6-2.6 0-1.58-.84-2.33-2.6-2.33h-1.3v4.93zM58.55 12.21c0-4.33 2.88-7.25 7.53-7.25s7.53 2.93 7.53 7.25-2.88 7.26-7.53 7.26-7.53-2.9-7.53-7.26zm11.4 0c0-2.84-.95-5.62-3.87-5.62s-3.88 2.8-3.88 5.62c0 2.83.95 5.63 3.88 5.63 2.92 0 3.87-2.78 3.87-5.63zM79.43 17.62l2.69.32v1.23H74.3v-1.23l1.65-.4V4.64l-1.65-.4V3.04h7.04c4.5 0 6.72 1.55 6.72 4.74 0 3.27-2.44 5.1-6.77 5.1h-1.85v4.73zm0-6.2h2c1.9 0 3.09-1.35 3.09-3.54 0-2.1-1.1-3.36-2.96-3.36h-2.13v6.9zM103.92 6.45l-1.46.4v6.94c0 3.77-2.28 5.68-5.88 5.68-4 0-6.08-2.3-6.08-5.86V6.86l-1.45-.4v-1.2h6.45v1.2l-1.49.4V14c0 2.13 1.28 3.54 3.36 3.54 2 0 3.3-1.3 3.3-3.32V6.85l-1.48-.4V5.26h4.73v1.2zM118.46 15.32c0 2.6-2.08 3.85-6.45 3.85h-7.12v-1.23l1.63-.4V6.85l-1.43-.4V5.26h7.02c3.7 0 5.72 1.11 5.72 3.44 0 1.8-1.2 2.66-3.2 2.9v.08c2.5.28 3.83 1.55 3.83 3.64zM110 11.24h1.69c1.79 0 2.64-.81 2.64-2.28 0-1.54-.92-2.23-2.64-2.23H110v4.51zm4.93 3.93c0-1.64-1.11-2.54-3.3-2.54H110v5.07h1.95c1.88 0 2.97-.9 2.97-2.52zM132.31 14.26l-1.29 4.91h-11.34v-1.23l1.55-.4V6.85l-1.65-.4V5.26h6.67v1.2l-1.55.4V17.7l4.16-.24 2.26-3.6 1.2.4zM139.45 17.94v1.23h-6.57v-1.23l1.55-.4V6.85l-1.55-.4V5.26h6.57v1.2l-1.55.4v10.68l1.55.4zM140.21 12.26c0-4.65 3.56-7.3 7.92-7.3 1.9.01 3.75.53 5.37 1.51l-.59 3.88h-1.23l-.5-2.66a3.88 3.88 0 00-2.96-1.22c-2.68 0-4.3 1.93-4.3 5.35 0 3.87 2 5.66 4.46 5.66 1.81 0 3-1 3.94-2.8l1.25.59c-1.25 2.93-3.42 4.21-6.18 4.21a6.92 6.92 0 01-7.18-7.22zM168.44 17.94v1.23h-6.67v-1.23l1.62-.34-.84-2.38h-4.87l-.91 2.4 1.59.34-.03 1.23-4.84-.02v-1.23l1.25-.32 4.37-10.95-1.17-.38V5.26h4.01L167 17.6l1.44.34zm-8.08-9.1l-.14-.45-.14.45-1.83 4.91h3.8l-1.7-4.9z"/>
</svg>