<svg xmlns="http://www.w3.org/2000/svg" fill="#404041" viewBox="0 0 98 24">
  <title>Timely logo</title>
  <path d="M90.24 6.26v.05c-.55.34-.73.65-.73 1.18 0 .41.15.96.39 1.46l2.69 5.6 1.64-3.87.59-1.51c.18-.44.26-.84.26-1.2 0-.86-.44-1.34-1.27-1.66v-.05h3.9v.05a6.13 6.13 0 00-1.63 2.1l-2.18 5.13-2.14 5.1v.02l-.61 1.45-.13.26c-.18.37-.54 1.15-.88 1.71A3.65 3.65 0 0186.83 24a2.57 2.57 0 112.37-2.03c.34-.44.74-1.25 1.22-2.42L85.05 9.07c-.47-.94-.95-1.87-1.44-2.8h6.63zM29.76.6v5.7l.06.02h3.44v.95h-3.5v8.83c0 .94.7 1.55 1.4 1.55.5 0 1.01-.13 1.22-.55 0 .02.2.05.2.08-.2 1.28-1.64 2.39-3.28 2.39-2.34 0-4.24-1.03-4.28-4.4v.18l.04-8.08h-3.3v-.8c.35-.02.66-.04.93-.08 3.9-.6 5.57-3.17 6.32-5.79h.74zm47.4 12h-8.5c0 3.06 1.74 4.6 4.1 4.6a4.4 4.4 0 004.07-2.32l.19.07c-.78 2.8-3.18 4.4-6.22 4.4-3.82 0-6.97-2.46-6.97-6.73 0-4.1 2.78-6.6 6.6-6.75 4.89-.19 6.72 2.7 6.72 6.73zM83.05.13v16.3c0 1.68.07 2.04 1.14 2.74v.05h-5.7V3.02c0-1.74-.31-2.24-1.54-2.84V.13h6.1zm-24.67 5.9c2.8 0 4.03 1.98 4.03 4.5v6.62c.05 1.04.27 1.38 1.21 1.97v.06l-3.27-.03-2.6.03v-.06h-.01.01V10.4c0-1.2-.39-2.16-1.61-2.16-1.2 0-2.04 1.1-2.04 3.43v4.66c0 1.15 0 2.07-.02 2.78h-4.64v-8.71c0-1.2-.36-2.16-1.59-2.16-1.22 0-2.03 1.1-2.03 3.43v7.44h-4.66V9.2c0-1.77-.16-2.14-1.38-2.84V6.3h6.04v2.57c.24-.62.69-1.33 1.26-1.81a4.58 4.58 0 013.01-1.02c2.02 0 3.75.91 3.99 2.83a4.6 4.6 0 011-1.48 4.4 4.4 0 013.3-1.35zm-19.7.29v10.04l.01.75c.05 1.07.26 1.41 1.21 2.01v.06l-3.46-.03h-2.44V6.32h4.68zm-13.68 9.05v.1-.1zM70.74 6.6c-1.43 0-1.96 2.1-2.03 5.14h4.06c-.01-2.89-.46-5.14-2.03-5.14zM36.33 0a2.57 2.57 0 110 5.14 2.57 2.57 0 010-5.14z"/>
  <path d="M9.65 12.12a3.75 3.75 0 110 7.5 3.75 3.75 0 010-7.5zm0-11.14a9.58 9.58 0 014.76 17.93l-.11-.13a6.68 6.68 0 001.8-4.58 6.53 6.53 0 00-6.45-6.61 6.53 6.53 0 00-6.45 6.6c-.01 1.7.63 3.35 1.8 4.59l-.12.13A9.58 9.58 0 019.65.98z"/>
</svg>
